<svg xmlns="http://www.w3.org/2000/svg" xmlns:xlink="http://www.w3.org/1999/xlink" width="250" zoomAndPan="magnify" viewBox="0 0 187.5 104.999996" height="140" preserveAspectRatio="xMidYMid meet" version="1.0"><defs><g><g id="id1"/></g><clipPath id="id2"><path d="M 58.367188 5.726562 L 92.867188 5.726562 L 92.867188 40.226562 L 58.367188 40.226562 Z M 58.367188 5.726562 " clip-rule="nonzero"/></clipPath><clipPath id="id3"><path d="M 94.371094 24.347656 L 128.871094 24.347656 L 128.871094 58.847656 L 94.371094 58.847656 Z M 94.371094 24.347656 " clip-rule="nonzero"/></clipPath><clipPath id="id4"><path d="M 58.367188 41.730469 L 92.867188 41.730469 L 92.867188 76.230469 L 58.367188 76.230469 Z M 58.367188 41.730469 " clip-rule="nonzero"/></clipPath></defs><g clip-path="url(#id2)"><path fill="rgb(1.179504%, 59.609985%, 61.959839%)" d="M 58.367188 5.726562 L 92.867188 5.726562 L 92.867188 40.226562 L 58.367188 40.226562 Z M 58.367188 5.726562 " fill-opacity="1" fill-rule="nonzero"/></g><g clip-path="url(#id3)"><path fill="rgb(32.939148%, 32.939148%, 32.939148%)" d="M 94.371094 24.347656 L 128.871094 24.347656 L 128.871094 58.847656 L 94.371094 58.847656 Z M 94.371094 24.347656 " fill-opacity="1" fill-rule="nonzero"/></g><g clip-path="url(#id4)"><path fill="rgb(0%, 0%, 0%)" d="M 58.367188 41.730469 L 92.867188 41.730469 L 92.867188 76.230469 L 58.367188 76.230469 Z M 58.367188 41.730469 " fill-opacity="1" fill-rule="nonzero"/></g><g fill="rgb(100%, 100%, 100%)" fill-opacity="1"><g transform="translate(69.798371, 30.348678)"><g><path d="M 1.882812 -12.441406 L 1.882812 0 L 3.304688 0 L 3.304688 -3.929688 L 6.558594 -3.929688 C 9.632812 -3.929688 11.414062 -5.511719 11.414062 -8.265625 C 11.414062 -10.914062 9.632812 -12.441406 6.558594 -12.441406 Z M 3.304688 -11.074219 L 6.507812 -11.074219 C 8.746094 -11.074219 10.042969 -10.113281 10.042969 -8.230469 C 10.042969 -6.292969 8.746094 -5.296875 6.507812 -5.296875 L 3.304688 -5.296875 Z M 3.304688 -11.074219 "/></g></g></g><g fill="rgb(100%, 100%, 100%)" fill-opacity="1"><g transform="translate(106.318356, 47.730033)"><g><path d="M 5.582031 -12.496094 C 3.003906 -12.496094 1.28125 -11.234375 1.28125 -9.277344 C 1.28125 -4.816406 8.285156 -6.558594 8.265625 -3.289062 C 8.265625 -2.097656 7.144531 -1.367188 5.351562 -1.367188 C 3.945312 -1.367188 2.363281 -2.007812 1.207031 -3.128906 L 0.570312 -1.847656 C 1.742188 -0.730469 3.519531 0.0546875 5.332031 0.0546875 C 8 0.0546875 9.832031 -1.28125 9.832031 -3.359375 C 9.847656 -7.875 2.84375 -6.203125 2.84375 -9.402344 C 2.84375 -10.453125 3.894531 -11.058594 5.492188 -11.058594 C 6.488281 -11.058594 7.804688 -10.753906 8.921875 -10.007812 L 9.527344 -11.339844 C 8.496094 -12.035156 7.023438 -12.496094 5.582031 -12.496094 Z M 5.582031 -12.496094 "/></g></g></g><g fill="rgb(100%, 100%, 100%)" fill-opacity="1"><g transform="translate(69.523583, 65.111388)"><g><path d="M 7.199219 -12.480469 C 3.589844 -12.480469 0.710938 -9.722656 0.710938 -6.238281 C 0.710938 -2.71875 3.554688 0.0703125 7.144531 0.0703125 C 8.871094 0.0703125 10.542969 -0.691406 11.769531 -1.847656 L 10.898438 -2.828125 C 9.917969 -1.902344 8.585938 -1.332031 7.21875 -1.332031 C 4.410156 -1.332031 2.152344 -3.519531 2.152344 -6.238281 C 2.152344 -8.976562 4.410156 -11.144531 7.21875 -11.144531 C 8.585938 -11.144531 9.9375 -10.558594 10.898438 -9.582031 L 11.75 -10.664062 C 10.558594 -11.785156 8.90625 -12.480469 7.199219 -12.480469 Z M 7.199219 -12.480469 "/></g></g></g><g fill="rgb(13.328552%, 13.328552%, 13.328552%)" fill-opacity="1"><g transform="translate(14.017995, 101.52496)"><g><path d="M 0.828125 0 C 0.765625 0 0.734375 -0.03125 0.734375 -0.09375 L 0.78125 -12.828125 C 0.78125 -12.867188 0.804688 -12.890625 0.859375 -12.890625 L 4.40625 -12.890625 C 5.539062 -12.890625 6.4375 -12.546875 7.09375 -11.859375 C 7.757812 -11.171875 8.09375 -10.234375 8.09375 -9.046875 C 8.09375 -8.171875 7.921875 -7.410156 7.578125 -6.765625 C 7.234375 -6.117188 6.78125 -5.625 6.21875 -5.28125 C 5.664062 -4.9375 5.0625 -4.765625 4.40625 -4.765625 L 3 -4.765625 L 3 -0.09375 C 3 -0.03125 2.96875 0 2.90625 0 Z M 3 -7 L 4.40625 -7 C 4.800781 -7 5.144531 -7.1875 5.4375 -7.5625 C 5.726562 -7.945312 5.875 -8.441406 5.875 -9.046875 C 5.875 -9.523438 5.742188 -9.914062 5.484375 -10.21875 C 5.222656 -10.53125 4.863281 -10.6875 4.40625 -10.6875 L 3 -10.671875 Z M 3 -7 "/></g></g></g><g fill="rgb(13.328552%, 13.328552%, 13.328552%)" fill-opacity="1"><g transform="translate(23.461677, 101.52496)"><g><path d="M 0.828125 0 C 0.765625 0 0.734375 -0.03125 0.734375 -0.09375 L 0.765625 -12.828125 C 0.765625 -12.867188 0.785156 -12.890625 0.828125 -12.890625 L 2.90625 -12.890625 C 2.957031 -12.890625 2.984375 -12.867188 2.984375 -12.828125 L 3 -0.09375 C 3 -0.03125 2.972656 0 2.921875 0 Z M 0.921875 -13.875 C 0.859375 -13.875 0.832031 -13.898438 0.84375 -13.953125 L 2.328125 -17.15625 C 2.347656 -17.207031 2.378906 -17.234375 2.421875 -17.234375 L 4.53125 -17.234375 C 4.613281 -17.234375 4.640625 -17.207031 4.609375 -17.15625 L 2.890625 -13.953125 C 2.867188 -13.898438 2.832031 -13.875 2.78125 -13.875 Z M 0.921875 -13.875 "/></g></g></g><g fill="rgb(13.328552%, 13.328552%, 13.328552%)" fill-opacity="1"><g transform="translate(28.332002, 101.52496)"><g><path d="M 0.171875 0 C 0.117188 0 0.0976562 -0.03125 0.109375 -0.09375 L 2.21875 -6.703125 L 0.140625 -12.828125 C 0.128906 -12.867188 0.148438 -12.890625 0.203125 -12.890625 L 2.28125 -12.890625 C 2.34375 -12.890625 2.378906 -12.867188 2.390625 -12.828125 L 3.625 -8.40625 L 4.890625 -12.828125 C 4.898438 -12.867188 4.9375 -12.890625 5 -12.890625 L 7.0625 -12.890625 C 7.113281 -12.890625 7.128906 -12.867188 7.109375 -12.828125 L 5.046875 -6.734375 L 7.140625 -0.09375 C 7.160156 -0.03125 7.140625 0 7.078125 0 L 5 0 C 4.945312 0 4.910156 -0.03125 4.890625 -0.09375 L 3.625 -4.875 L 2.359375 -0.09375 C 2.335938 -0.03125 2.300781 0 2.25 0 Z M 0.171875 0 "/></g></g></g><g fill="rgb(13.328552%, 13.328552%, 13.328552%)" fill-opacity="1"><g transform="translate(36.794354, 101.52496)"><g><path d="M 0.8125 0 C 0.757812 0 0.734375 -0.03125 0.734375 -0.09375 L 0.765625 -12.828125 C 0.765625 -12.867188 0.785156 -12.890625 0.828125 -12.890625 L 6.78125 -12.890625 C 6.832031 -12.890625 6.859375 -12.863281 6.859375 -12.8125 L 6.859375 -10.734375 C 6.859375 -10.679688 6.832031 -10.65625 6.78125 -10.65625 L 2.984375 -10.65625 L 2.984375 -7.765625 L 6.78125 -7.765625 C 6.832031 -7.765625 6.859375 -7.738281 6.859375 -7.6875 L 6.875 -5.59375 C 6.875 -5.539062 6.847656 -5.515625 6.796875 -5.515625 L 2.984375 -5.515625 L 2.984375 -2.28125 L 6.796875 -2.28125 C 6.847656 -2.28125 6.875 -2.25 6.875 -2.1875 L 6.875 -0.078125 C 6.875 -0.0234375 6.847656 0 6.796875 0 Z M 0.8125 0 "/></g></g></g><g fill="rgb(13.328552%, 13.328552%, 13.328552%)" fill-opacity="1"><g transform="translate(45.552957, 101.52496)"><g><path d="M 0.8125 0 C 0.757812 0 0.734375 -0.03125 0.734375 -0.09375 L 0.765625 -12.8125 C 0.765625 -12.863281 0.796875 -12.890625 0.859375 -12.890625 L 2.90625 -12.890625 C 2.96875 -12.890625 3 -12.863281 3 -12.8125 L 2.984375 -2.28125 L 6.796875 -2.28125 C 6.859375 -2.28125 6.890625 -2.25 6.890625 -2.1875 L 6.890625 -0.09375 C 6.890625 -0.03125 6.859375 0 6.796875 0 Z M 0.8125 0 "/></g></g></g><g fill="rgb(13.328552%, 13.328552%, 13.328552%)" fill-opacity="1"><g transform="translate(53.885703, 101.52496)"><g><path d="M 0.8125 0 C 0.757812 0 0.734375 -0.03125 0.734375 -0.09375 L 0.765625 -12.828125 C 0.765625 -12.867188 0.785156 -12.890625 0.828125 -12.890625 L 6.78125 -12.890625 C 6.832031 -12.890625 6.859375 -12.863281 6.859375 -12.8125 L 6.859375 -10.734375 C 6.859375 -10.679688 6.832031 -10.65625 6.78125 -10.65625 L 2.984375 -10.65625 L 2.984375 -7.765625 L 6.78125 -7.765625 C 6.832031 -7.765625 6.859375 -7.738281 6.859375 -7.6875 L 6.875 -5.59375 C 6.875 -5.539062 6.847656 -5.515625 6.796875 -5.515625 L 2.984375 -5.515625 L 2.984375 -2.28125 L 6.796875 -2.28125 C 6.847656 -2.28125 6.875 -2.25 6.875 -2.1875 L 6.875 -0.078125 C 6.875 -0.0234375 6.847656 0 6.796875 0 Z M 0.8125 0 "/></g></g></g><g fill="rgb(13.328552%, 13.328552%, 13.328552%)" fill-opacity="1"><g transform="translate(62.644309, 101.52496)"><g><path d="M 3.890625 0.1875 C 3.222656 0.1875 2.613281 0.0195312 2.0625 -0.3125 C 1.507812 -0.65625 1.070312 -1.109375 0.75 -1.671875 C 0.425781 -2.234375 0.265625 -2.859375 0.265625 -3.546875 L 0.265625 -4.390625 C 0.265625 -4.453125 0.296875 -4.484375 0.359375 -4.484375 L 2.421875 -4.484375 C 2.472656 -4.484375 2.5 -4.453125 2.5 -4.390625 L 2.5 -3.546875 C 2.5 -3.128906 2.632812 -2.773438 2.90625 -2.484375 C 3.175781 -2.203125 3.503906 -2.0625 3.890625 -2.0625 C 4.273438 -2.0625 4.601562 -2.207031 4.875 -2.5 C 5.144531 -2.800781 5.28125 -3.148438 5.28125 -3.546875 C 5.28125 -3.992188 4.984375 -4.382812 4.390625 -4.71875 C 4.191406 -4.832031 3.878906 -5.003906 3.453125 -5.234375 C 3.035156 -5.472656 2.644531 -5.695312 2.28125 -5.90625 C 1.601562 -6.300781 1.097656 -6.796875 0.765625 -7.390625 C 0.441406 -7.992188 0.28125 -8.675781 0.28125 -9.4375 C 0.28125 -10.125 0.445312 -10.742188 0.78125 -11.296875 C 1.113281 -11.847656 1.550781 -12.28125 2.09375 -12.59375 C 2.644531 -12.914062 3.242188 -13.078125 3.890625 -13.078125 C 4.546875 -13.078125 5.144531 -12.910156 5.6875 -12.578125 C 6.238281 -12.253906 6.675781 -11.816406 7 -11.265625 C 7.332031 -10.722656 7.5 -10.113281 7.5 -9.4375 L 7.5 -7.90625 C 7.5 -7.863281 7.476562 -7.84375 7.4375 -7.84375 L 5.359375 -7.84375 C 5.304688 -7.84375 5.28125 -7.863281 5.28125 -7.90625 L 5.265625 -9.4375 C 5.265625 -9.863281 5.128906 -10.210938 4.859375 -10.484375 C 4.585938 -10.753906 4.265625 -10.890625 3.890625 -10.890625 C 3.503906 -10.890625 3.175781 -10.742188 2.90625 -10.453125 C 2.632812 -10.171875 2.5 -9.832031 2.5 -9.4375 C 2.5 -9.03125 2.582031 -8.6875 2.75 -8.40625 C 2.925781 -8.132812 3.242188 -7.878906 3.703125 -7.640625 C 3.765625 -7.597656 3.882812 -7.53125 4.0625 -7.4375 C 4.25 -7.34375 4.445312 -7.238281 4.65625 -7.125 C 4.863281 -7.007812 5.050781 -6.90625 5.21875 -6.8125 C 5.382812 -6.726562 5.484375 -6.675781 5.515625 -6.65625 C 6.140625 -6.3125 6.628906 -5.890625 6.984375 -5.390625 C 7.347656 -4.890625 7.53125 -4.273438 7.53125 -3.546875 C 7.53125 -2.835938 7.363281 -2.203125 7.03125 -1.640625 C 6.707031 -1.078125 6.269531 -0.628906 5.71875 -0.296875 C 5.164062 0.0234375 4.554688 0.1875 3.890625 0.1875 Z M 3.890625 0.1875 "/></g></g></g><g fill="rgb(13.328552%, 13.328552%, 13.328552%)" fill-opacity="1"><g transform="translate(71.699166, 101.52496)"><g/></g></g><g fill="rgb(13.328552%, 13.328552%, 13.328552%)" fill-opacity="1"><g transform="translate(75.421511, 101.52496)"><g><path d="M 3.890625 0.1875 C 3.222656 0.1875 2.613281 0.0195312 2.0625 -0.3125 C 1.507812 -0.65625 1.070312 -1.109375 0.75 -1.671875 C 0.425781 -2.234375 0.265625 -2.859375 0.265625 -3.546875 L 0.265625 -4.390625 C 0.265625 -4.453125 0.296875 -4.484375 0.359375 -4.484375 L 2.421875 -4.484375 C 2.472656 -4.484375 2.5 -4.453125 2.5 -4.390625 L 2.5 -3.546875 C 2.5 -3.128906 2.632812 -2.773438 2.90625 -2.484375 C 3.175781 -2.203125 3.503906 -2.0625 3.890625 -2.0625 C 4.273438 -2.0625 4.601562 -2.207031 4.875 -2.5 C 5.144531 -2.800781 5.28125 -3.148438 5.28125 -3.546875 C 5.28125 -3.992188 4.984375 -4.382812 4.390625 -4.71875 C 4.191406 -4.832031 3.878906 -5.003906 3.453125 -5.234375 C 3.035156 -5.472656 2.644531 -5.695312 2.28125 -5.90625 C 1.601562 -6.300781 1.097656 -6.796875 0.765625 -7.390625 C 0.441406 -7.992188 0.28125 -8.675781 0.28125 -9.4375 C 0.28125 -10.125 0.445312 -10.742188 0.78125 -11.296875 C 1.113281 -11.847656 1.550781 -12.28125 2.09375 -12.59375 C 2.644531 -12.914062 3.242188 -13.078125 3.890625 -13.078125 C 4.546875 -13.078125 5.144531 -12.910156 5.6875 -12.578125 C 6.238281 -12.253906 6.675781 -11.816406 7 -11.265625 C 7.332031 -10.722656 7.5 -10.113281 7.5 -9.4375 L 7.5 -7.90625 C 7.5 -7.863281 7.476562 -7.84375 7.4375 -7.84375 L 5.359375 -7.84375 C 5.304688 -7.84375 5.28125 -7.863281 5.28125 -7.90625 L 5.265625 -9.4375 C 5.265625 -9.863281 5.128906 -10.210938 4.859375 -10.484375 C 4.585938 -10.753906 4.265625 -10.890625 3.890625 -10.890625 C 3.503906 -10.890625 3.175781 -10.742188 2.90625 -10.453125 C 2.632812 -10.171875 2.5 -9.832031 2.5 -9.4375 C 2.5 -9.03125 2.582031 -8.6875 2.75 -8.40625 C 2.925781 -8.132812 3.242188 -7.878906 3.703125 -7.640625 C 3.765625 -7.597656 3.882812 -7.53125 4.0625 -7.4375 C 4.25 -7.34375 4.445312 -7.238281 4.65625 -7.125 C 4.863281 -7.007812 5.050781 -6.90625 5.21875 -6.8125 C 5.382812 -6.726562 5.484375 -6.675781 5.515625 -6.65625 C 6.140625 -6.3125 6.628906 -5.890625 6.984375 -5.390625 C 7.347656 -4.890625 7.53125 -4.273438 7.53125 -3.546875 C 7.53125 -2.835938 7.363281 -2.203125 7.03125 -1.640625 C 6.707031 -1.078125 6.269531 -0.628906 5.71875 -0.296875 C 5.164062 0.0234375 4.554688 0.1875 3.890625 0.1875 Z M 3.890625 0.1875 "/></g></g></g><g fill="rgb(13.328552%, 13.328552%, 13.328552%)" fill-opacity="1"><g transform="translate(84.476367, 101.52496)"><g><path d="M 0.828125 0 C 0.765625 0 0.734375 -0.03125 0.734375 -0.09375 L 0.765625 -12.828125 C 0.765625 -12.867188 0.785156 -12.890625 0.828125 -12.890625 L 2.90625 -12.890625 C 2.957031 -12.890625 2.984375 -12.867188 2.984375 -12.828125 L 3 -0.09375 C 3 -0.03125 2.972656 0 2.921875 0 Z M 0.828125 0 "/></g></g></g><g fill="rgb(13.328552%, 13.328552%, 13.328552%)" fill-opacity="1"><g transform="translate(89.346692, 101.52496)"><g><path d="M 0.90625 0 C 0.8125 0 0.765625 -0.0390625 0.765625 -0.125 L 0.734375 -12.75 C 0.734375 -12.84375 0.785156 -12.890625 0.890625 -12.890625 L 2.5625 -12.890625 L 5.6875 -5.59375 L 5.59375 -12.75 C 5.59375 -12.84375 5.648438 -12.890625 5.765625 -12.890625 L 7.59375 -12.890625 C 7.664062 -12.890625 7.703125 -12.84375 7.703125 -12.75 L 7.734375 -0.109375 C 7.734375 -0.0351562 7.703125 0 7.640625 0 L 6 0 L 2.796875 -6.8125 L 2.921875 -0.140625 C 2.921875 -0.046875 2.867188 0 2.765625 0 Z M 0.90625 0 "/></g></g></g><g fill="rgb(13.328552%, 13.328552%, 13.328552%)" fill-opacity="1"><g transform="translate(98.919989, 101.52496)"><g/></g></g><g fill="rgb(13.328552%, 13.328552%, 13.328552%)" fill-opacity="1"><g transform="translate(102.642334, 101.52496)"><g><path d="M 4.15625 0.1875 C 3.46875 0.1875 2.847656 0.0195312 2.296875 -0.3125 C 1.753906 -0.65625 1.320312 -1.109375 1 -1.671875 C 0.675781 -2.242188 0.515625 -2.882812 0.515625 -3.59375 L 0.53125 -9.375 C 0.53125 -10.050781 0.6875 -10.671875 1 -11.234375 C 1.320312 -11.796875 1.753906 -12.25 2.296875 -12.59375 C 2.847656 -12.9375 3.46875 -13.109375 4.15625 -13.109375 C 4.832031 -13.109375 5.441406 -12.9375 5.984375 -12.59375 C 6.523438 -12.257812 6.957031 -11.8125 7.28125 -11.25 C 7.601562 -10.695312 7.765625 -10.070312 7.765625 -9.375 L 7.765625 -8.53125 C 7.765625 -8.476562 7.738281 -8.453125 7.6875 -8.453125 L 5.609375 -8.453125 C 5.566406 -8.453125 5.546875 -8.476562 5.546875 -8.53125 L 5.546875 -9.375 C 5.546875 -9.78125 5.410156 -10.128906 5.140625 -10.421875 C 4.878906 -10.722656 4.550781 -10.875 4.15625 -10.875 C 3.707031 -10.875 3.363281 -10.722656 3.125 -10.421875 C 2.894531 -10.117188 2.78125 -9.769531 2.78125 -9.375 L 2.78125 -3.59375 C 2.78125 -3.132812 2.910156 -2.765625 3.171875 -2.484375 C 3.441406 -2.203125 3.769531 -2.0625 4.15625 -2.0625 C 4.550781 -2.0625 4.878906 -2.21875 5.140625 -2.53125 C 5.410156 -2.84375 5.546875 -3.195312 5.546875 -3.59375 L 5.546875 -4.453125 C 5.546875 -4.492188 5.566406 -4.515625 5.609375 -4.515625 L 7.703125 -4.515625 C 7.753906 -4.515625 7.78125 -4.492188 7.78125 -4.453125 L 7.78125 -3.59375 C 7.78125 -2.882812 7.613281 -2.242188 7.28125 -1.671875 C 6.957031 -1.109375 6.523438 -0.65625 5.984375 -0.3125 C 5.441406 0.0195312 4.832031 0.1875 4.15625 0.1875 Z M 4.15625 0.1875 "/></g></g></g><g fill="rgb(13.328552%, 13.328552%, 13.328552%)" fill-opacity="1"><g transform="translate(112.01196, 101.52496)"><g><path d="M 4.171875 0.1875 C 3.503906 0.1875 2.894531 0.0195312 2.34375 -0.3125 C 1.789062 -0.65625 1.347656 -1.109375 1.015625 -1.671875 C 0.679688 -2.234375 0.515625 -2.859375 0.515625 -3.546875 L 0.53125 -9.40625 C 0.53125 -10.09375 0.691406 -10.710938 1.015625 -11.265625 C 1.347656 -11.816406 1.789062 -12.257812 2.34375 -12.59375 C 2.90625 -12.9375 3.515625 -13.109375 4.171875 -13.109375 C 4.835938 -13.109375 5.441406 -12.9375 5.984375 -12.59375 C 6.523438 -12.257812 6.957031 -11.816406 7.28125 -11.265625 C 7.613281 -10.710938 7.78125 -10.09375 7.78125 -9.40625 L 7.796875 -3.546875 C 7.796875 -2.859375 7.628906 -2.234375 7.296875 -1.671875 C 6.972656 -1.109375 6.535156 -0.65625 5.984375 -0.3125 C 5.441406 0.0195312 4.835938 0.1875 4.171875 0.1875 Z M 4.171875 -2.0625 C 4.535156 -2.0625 4.859375 -2.210938 5.140625 -2.515625 C 5.421875 -2.816406 5.5625 -3.160156 5.5625 -3.546875 L 5.546875 -9.40625 C 5.546875 -9.820312 5.414062 -10.171875 5.15625 -10.453125 C 4.894531 -10.734375 4.566406 -10.875 4.171875 -10.875 C 3.785156 -10.875 3.457031 -10.734375 3.1875 -10.453125 C 2.914062 -10.179688 2.78125 -9.832031 2.78125 -9.40625 L 2.78125 -3.546875 C 2.78125 -3.128906 2.914062 -2.773438 3.1875 -2.484375 C 3.457031 -2.203125 3.785156 -2.0625 4.171875 -2.0625 Z M 4.171875 -2.0625 "/></g></g></g><g fill="rgb(13.328552%, 13.328552%, 13.328552%)" fill-opacity="1"><g transform="translate(121.455647, 101.52496)"><g><path d="M 0.90625 0 C 0.8125 0 0.765625 -0.0390625 0.765625 -0.125 L 0.734375 -12.75 C 0.734375 -12.84375 0.785156 -12.890625 0.890625 -12.890625 L 2.5625 -12.890625 L 5.6875 -5.59375 L 5.59375 -12.75 C 5.59375 -12.84375 5.648438 -12.890625 5.765625 -12.890625 L 7.59375 -12.890625 C 7.664062 -12.890625 7.703125 -12.84375 7.703125 -12.75 L 7.734375 -0.109375 C 7.734375 -0.0351562 7.703125 0 7.640625 0 L 6 0 L 2.796875 -6.8125 L 2.921875 -0.140625 C 2.921875 -0.046875 2.867188 0 2.765625 0 Z M 0.90625 0 "/></g></g></g><g fill="rgb(13.328552%, 13.328552%, 13.328552%)" fill-opacity="1"><g transform="translate(131.028949, 101.52496)"><g><path d="M 2.59375 0 C 2.539062 0 2.515625 -0.03125 2.515625 -0.09375 L 2.515625 -10.65625 L 0.109375 -10.65625 C 0.046875 -10.65625 0.015625 -10.6875 0.015625 -10.75 L 0.03125 -12.828125 C 0.03125 -12.867188 0.0546875 -12.890625 0.109375 -12.890625 L 7.15625 -12.890625 C 7.21875 -12.890625 7.25 -12.867188 7.25 -12.828125 L 7.25 -10.75 C 7.25 -10.6875 7.222656 -10.65625 7.171875 -10.65625 L 4.75 -10.65625 L 4.765625 -0.09375 C 4.765625 -0.03125 4.738281 0 4.6875 0 Z M 2.59375 0 "/></g></g></g><g fill="rgb(13.328552%, 13.328552%, 13.328552%)" fill-opacity="1"><g transform="translate(139.41725, 101.52496)"><g><path d="M 0.8125 0 C 0.757812 0 0.734375 -0.03125 0.734375 -0.09375 L 0.765625 -12.828125 C 0.765625 -12.867188 0.785156 -12.890625 0.828125 -12.890625 L 6.78125 -12.890625 C 6.832031 -12.890625 6.859375 -12.863281 6.859375 -12.8125 L 6.859375 -10.734375 C 6.859375 -10.679688 6.832031 -10.65625 6.78125 -10.65625 L 2.984375 -10.65625 L 2.984375 -7.765625 L 6.78125 -7.765625 C 6.832031 -7.765625 6.859375 -7.738281 6.859375 -7.6875 L 6.875 -5.59375 C 6.875 -5.539062 6.847656 -5.515625 6.796875 -5.515625 L 2.984375 -5.515625 L 2.984375 -2.28125 L 6.796875 -2.28125 C 6.847656 -2.28125 6.875 -2.25 6.875 -2.1875 L 6.875 -0.078125 C 6.875 -0.0234375 6.847656 0 6.796875 0 Z M 0.8125 0 "/></g></g></g><g fill="rgb(13.328552%, 13.328552%, 13.328552%)" fill-opacity="1"><g transform="translate(148.175859, 101.52496)"><g><path d="M 0.171875 0 C 0.117188 0 0.0976562 -0.03125 0.109375 -0.09375 L 2.21875 -6.703125 L 0.140625 -12.828125 C 0.128906 -12.867188 0.148438 -12.890625 0.203125 -12.890625 L 2.28125 -12.890625 C 2.34375 -12.890625 2.378906 -12.867188 2.390625 -12.828125 L 3.625 -8.40625 L 4.890625 -12.828125 C 4.898438 -12.867188 4.9375 -12.890625 5 -12.890625 L 7.0625 -12.890625 C 7.113281 -12.890625 7.128906 -12.867188 7.109375 -12.828125 L 5.046875 -6.734375 L 7.140625 -0.09375 C 7.160156 -0.03125 7.140625 0 7.078125 0 L 5 0 C 4.945312 0 4.910156 -0.03125 4.890625 -0.09375 L 3.625 -4.875 L 2.359375 -0.09375 C 2.335938 -0.03125 2.300781 0 2.25 0 Z M 0.171875 0 "/></g></g></g><g fill="rgb(13.328552%, 13.328552%, 13.328552%)" fill-opacity="1"><g transform="translate(156.638215, 101.52496)"><g><path d="M 2.59375 0 C 2.539062 0 2.515625 -0.03125 2.515625 -0.09375 L 2.515625 -10.65625 L 0.109375 -10.65625 C 0.046875 -10.65625 0.015625 -10.6875 0.015625 -10.75 L 0.03125 -12.828125 C 0.03125 -12.867188 0.0546875 -12.890625 0.109375 -12.890625 L 7.15625 -12.890625 C 7.21875 -12.890625 7.25 -12.867188 7.25 -12.828125 L 7.25 -10.75 C 7.25 -10.6875 7.222656 -10.65625 7.171875 -10.65625 L 4.75 -10.65625 L 4.765625 -0.09375 C 4.765625 -0.03125 4.738281 0 4.6875 0 Z M 2.59375 0 "/></g></g></g><g fill="rgb(13.328552%, 13.328552%, 13.328552%)" fill-opacity="1"><g transform="translate(165.026516, 101.52496)"><g><path d="M 4.171875 0.1875 C 3.503906 0.1875 2.894531 0.0195312 2.34375 -0.3125 C 1.789062 -0.65625 1.347656 -1.109375 1.015625 -1.671875 C 0.679688 -2.234375 0.515625 -2.859375 0.515625 -3.546875 L 0.53125 -9.40625 C 0.53125 -10.09375 0.691406 -10.710938 1.015625 -11.265625 C 1.347656 -11.816406 1.789062 -12.257812 2.34375 -12.59375 C 2.90625 -12.9375 3.515625 -13.109375 4.171875 -13.109375 C 4.835938 -13.109375 5.441406 -12.9375 5.984375 -12.59375 C 6.523438 -12.257812 6.957031 -11.816406 7.28125 -11.265625 C 7.613281 -10.710938 7.78125 -10.09375 7.78125 -9.40625 L 7.796875 -3.546875 C 7.796875 -2.859375 7.628906 -2.234375 7.296875 -1.671875 C 6.972656 -1.109375 6.535156 -0.65625 5.984375 -0.3125 C 5.441406 0.0195312 4.835938 0.1875 4.171875 0.1875 Z M 4.171875 -2.0625 C 4.535156 -2.0625 4.859375 -2.210938 5.140625 -2.515625 C 5.421875 -2.816406 5.5625 -3.160156 5.5625 -3.546875 L 5.546875 -9.40625 C 5.546875 -9.820312 5.414062 -10.171875 5.15625 -10.453125 C 4.894531 -10.734375 4.566406 -10.875 4.171875 -10.875 C 3.785156 -10.875 3.457031 -10.734375 3.1875 -10.453125 C 2.914062 -10.179688 2.78125 -9.832031 2.78125 -9.40625 L 2.78125 -3.546875 C 2.78125 -3.128906 2.914062 -2.773438 3.1875 -2.484375 C 3.457031 -2.203125 3.785156 -2.0625 4.171875 -2.0625 Z M 4.171875 -2.0625 "/></g></g></g></svg>